<svg width="60" height="61" viewBox="0 0 60 61" fill="none" xmlns="http://www.w3.org/2000/svg">
<mask id="mask0_6511_1880" style="mask-type:luminance" maskUnits="userSpaceOnUse" x="0" y="0" width="60" height="61">
<path d="M59.3377 0.919922H0.148438V60.1091H59.3377V0.919922Z" fill="white"/>
</mask>
<g mask="url(#mask0_6511_1880)">
<path d="M11.9297 15.063V30.9201C14.9297 29.9201 22.3011 29.7201 27.7868 36.9201C29.0725 39.6344 31.1297 45.9201 29.0725 49.3487L35.0725 52.7773V27.063L11.9297 15.063Z" fill="#FDC040"/>
<path d="M58.7379 13.7217L35.6857 1.06348C35.3394 0.87337 34.9194 0.87337 34.5731 1.06348L25.8843 5.83441C25.701 5.88272 25.5298 5.97485 25.388 6.10716L11.5213 13.7217C11.1516 13.9244 10.9217 14.3128 10.9217 14.735V30.0444C8.58253 30.776 6.43886 32.0661 4.65648 33.8489C0.0106515 38.4943 -1.17384 45.5795 1.70903 51.4794C1.98901 52.0529 2.68128 52.291 3.25479 52.0105C3.82874 51.7301 4.06627 51.0378 3.78629 50.4643C1.33694 45.4513 2.3435 39.4313 6.2912 35.4837C8.75996 33.0149 12.042 31.6552 15.5332 31.6552C19.0243 31.6552 22.3064 33.0149 24.7752 35.4837C27.2435 37.952 28.6032 41.2341 28.6032 44.7252C28.6032 48.2164 27.2435 51.4985 24.7747 53.9672C20.8271 57.9149 14.807 58.9215 9.7941 56.4721C9.22059 56.1917 8.52827 56.4297 8.24833 57.0031C7.96791 57.5771 8.20547 58.2694 8.77942 58.5493C10.9284 59.5997 13.2342 60.11 15.5232 60.11C19.5166 60.1096 23.4566 58.5552 26.4099 55.6019C27.7642 54.2477 28.8344 52.6852 29.5917 50.9867L34.5731 53.722C34.7465 53.8173 34.938 53.8647 35.1294 53.8647C35.3208 53.8647 35.5128 53.8173 35.6857 53.722L58.7379 41.0643C59.1078 40.8611 59.3376 40.4727 59.3376 40.0509V32.0169C59.3376 31.3784 58.8201 30.8609 58.1815 30.8609C57.543 30.8609 57.0255 31.3784 57.0255 32.0169V39.3668L36.2891 50.7533V28.0751L43.1328 24.317V30.2742C43.1328 30.6834 43.3486 31.0618 43.7004 31.2695C43.8819 31.3766 44.0851 31.4303 44.2888 31.4303C44.4803 31.4303 44.6722 31.3829 44.846 31.2871L49.7858 28.5682C50.1552 28.3649 50.3842 27.9771 50.3842 27.5558V20.3351L57.0255 16.6885V22.769C57.0255 23.4076 57.543 23.9251 58.1815 23.9251C58.8201 23.9251 59.3376 23.4076 59.3376 22.769V14.735C59.3376 14.3132 59.1078 13.9244 58.7379 13.7217ZM35.1294 3.39543L55.7796 14.735L49.2656 18.3119L28.6154 6.97238L35.1294 3.39543ZM35.1294 26.0741L14.4792 14.735L21.2321 11.0267L41.8828 22.3658L35.1294 26.0741ZM44.2842 21.0472L23.634 9.70802L26.2134 8.29144L46.8641 19.6306L44.2842 21.0472ZM26.4099 33.8489C23.5044 30.9435 19.6416 29.3435 15.5332 29.3435C14.756 29.3435 13.9884 29.4009 13.2337 29.5133V16.6885L33.9774 28.0792V50.7574L30.377 48.7804C30.7315 47.4753 30.9149 46.1142 30.9149 44.7252C30.9149 40.6168 29.3149 36.754 26.4099 33.8489ZM48.0726 26.8725L45.4448 28.3189V23.0477L48.0726 21.6048V26.8725Z" fill="#7C87C1"/>
<path d="M58.1795 26.2305C57.8756 26.2305 57.5771 26.3542 57.3622 26.5692C57.1472 26.7841 57.0234 27.0822 57.0234 27.3865C57.0234 27.6904 57.1472 27.9885 57.3622 28.2034C57.5771 28.4188 57.8756 28.5421 58.1795 28.5421C58.4834 28.5421 58.7819 28.4188 58.9968 28.2034C59.2118 27.9885 59.3356 27.6904 59.3356 27.3865C59.3356 27.0822 59.2118 26.7841 58.9968 26.5692C58.7819 26.3542 58.4834 26.2305 58.1795 26.2305Z" fill="#7C87C1"/>
<path d="M11.6451 45.8803C11.9409 45.8803 12.2371 45.7674 12.4624 45.5421C12.914 45.0904 12.914 44.3584 12.4624 43.9069L11.6618 43.1058H18.4941C20.1514 43.1058 21.4998 44.4542 21.4998 46.1115C21.4998 47.7688 20.1514 49.1172 18.4941 49.1172H14.4457C13.8072 49.1172 13.2897 49.6347 13.2897 50.2732C13.2897 50.9113 13.8072 51.4288 14.4457 51.4288H18.4941C21.4263 51.4288 23.8119 49.0436 23.8119 46.1115C23.8119 43.1794 21.4263 40.7942 18.4941 40.7942H11.6618L12.4624 39.993C12.914 39.5415 12.914 38.8095 12.4624 38.3579C12.0112 37.9067 11.2792 37.9067 10.8277 38.3579L8.05319 41.1324C7.60206 41.584 7.60206 42.316 8.05319 42.7676L10.8277 45.5416C11.0535 45.7674 11.3493 45.8803 11.6451 45.8803Z" fill="#7C87C1"/>
<path d="M5.47316 55.9415C5.14442 55.9415 4.81792 55.8016 4.58988 55.5301L4.58762 55.5275C4.17668 55.0388 4.23991 54.31 4.72851 53.8991C5.21712 53.4876 5.94642 53.5509 6.35736 54.0395C6.76784 54.5285 6.70598 55.2587 6.21736 55.6697C6.00015 55.8521 5.73598 55.9415 5.47316 55.9415Z" fill="#7C87C1"/>
</g>
</svg>
