<svg xmlns="http://www.w3.org/2000/svg" version="1.1" xmlns:xlink="http://www.w3.org/1999/xlink" xmlns:svgjs="http://svgjs.dev/svgjs" width="1500" height="272" viewBox="0 0 1500 272"><g transform="matrix(1,0,0,1,-0.9098592665354772,-0.11882229921991438)"><svg viewBox="0 0 396 72" data-background-color="#ffffff" preserveAspectRatio="xMidYMid meet" height="272" width="1500" xmlns="http://www.w3.org/2000/svg" xmlns:xlink="http://www.w3.org/1999/xlink"><g id="tight-bounds" transform="matrix(1,0,0,1,0.2402028463653778,0.031452961558215975)"><svg viewBox="0 0 395.52 71.93709407688355" height="71.93709407688355" width="395.52"><g><svg viewBox="0 0 395.52 71.93709407688355" height="71.93709407688355" width="395.52"><g><svg viewBox="0 0 395.52 71.93709407688355" height="71.93709407688355" width="395.52"><g id="textblocktransform"><svg viewBox="0 0 395.52 71.93709407688355" height="71.93709407688355" width="395.52" id="textblock"><g><svg viewBox="0 0 395.52 71.93709407688355" height="71.93709407688355" width="395.52"><g transform="matrix(1,0,0,1,0,0)"><svg width="395.52" viewBox="1.292083233342 -38.38 279.17791676665803 50.78" height="71.93709407688355" data-palette-color="#616da7"><path d="M10.25 0.61L10.25 0.61Q7.64 0.61 5.92 0.17 4.2-0.27 3.16-0.89 2.12-1.51 1.54-2.03L1.54-2.03Q1.1-2.44 1.44-2.95L1.44-2.95 3.93-6.64Q4.47-7.42 5.15-6.74L5.15-6.74Q5.86-6.05 7.07-5.41 8.28-4.76 10.08-4.76L10.08-4.76Q11.69-4.76 12.73-5.31 13.77-5.86 13.77-6.91L13.77-6.91Q13.77-7.64 13.31-8.11 12.84-8.57 11.67-9.06 10.5-9.55 8.4-10.3L8.4-10.3Q5.3-11.43 3.71-13.01 2.12-14.6 2.12-17.65L2.12-17.65Q2.12-20.46 3.67-22.22 5.22-23.97 7.65-24.79 10.08-25.61 12.72-25.61L12.72-25.61Q16.06-25.61 17.42-24.99 18.77-24.37 19.17-24.02L19.17-24.02Q19.53-23.71 19.68-23.29L19.68-23.29Q20-22.34 20.17-20.78L20.17-20.78Q20.26-19.87 19.7-19.58L19.7-19.58Q19.41-19.41 18.77-19.21 18.14-19.02 17.5-18.87 16.87-18.73 16.55-18.73L16.55-18.73Q16.46-18.73 16.35-18.79 16.24-18.85 15.97-19.09L15.97-19.09Q15.65-19.41 14.88-19.82 14.11-20.24 12.77-20.24L12.77-20.24Q11.45-20.24 10.56-19.81 9.67-19.38 9.67-18.31L9.67-18.31Q9.67-17.14 10.8-16.55 11.94-15.97 14.55-15.04L14.55-15.04Q16.6-14.33 18.13-13.49 19.65-12.65 20.48-11.29 21.31-9.94 21.31-7.64L21.31-7.64Q21.31-4.66 19.69-2.84 18.07-1.03 15.54-0.21 13.01 0.61 10.25 0.61ZM33.79-16.46L33.79-1.29Q33.79-0.56 33.48-0.28 33.18 0 32.44 0L32.44 0 27.41 0Q26.68 0 26.38-0.28 26.07-0.56 26.07-1.29L26.07-1.29 26.07-34.33Q26.07-34.91 26.32-35.23L26.32-35.23Q27.34-36.57 29.32-38.13L29.32-38.13Q29.66-38.38 29.93-38.38L29.93-38.38Q30.25-38.38 30.54-38.13L30.54-38.13Q31.59-37.33 32.31-36.62 33.03-35.91 33.54-35.23L33.54-35.23Q33.79-34.91 33.79-34.33L33.79-34.33 33.79-22.49 33.88-22.49Q34.42-23.19 35.28-23.91 36.13-24.63 37.56-25.12 38.99-25.61 41.21-25.61L41.21-25.61Q43.45-25.61 45.53-24.68 47.6-23.75 48.92-21.56 50.24-19.36 50.24-15.55L50.24-15.55 50.24-1.29Q50.24-0.56 49.94-0.28 49.63 0 48.9 0L48.9 0 43.87 0Q43.14 0 42.83-0.28 42.53-0.56 42.53-1.29L42.53-1.29 42.53-14.21Q42.53-16.92 41.4-18.15 40.28-19.38 38.35-19.38L38.35-19.38Q36.45-19.38 35.4-18.55 34.35-17.72 33.79-16.46L33.79-16.46ZM68.82 0.61L68.82 0.61Q62.67 0.61 59.08-2.66 55.49-5.93 55.49-12.4L55.49-12.4Q55.49-19.04 59.21-22.33 62.93-25.61 69.16-25.61L69.16-25.61Q75.17-25.61 78.78-22.38 82.39-19.14 82.39-12.84L82.39-12.84Q82.39-6.27 78.78-2.83 75.17 0.61 68.82 0.61ZM69.06-5.3L69.06-5.3Q71.75-5.3 73.12-6.97 74.48-8.64 74.48-12.7L74.48-12.7Q74.48-16.55 73.1-18.13 71.72-19.7 69.01-19.7L69.01-19.7Q66.4-19.7 64.9-18.01 63.4-16.31 63.4-12.5L63.4-12.5Q63.4-8.52 64.83-6.91 66.25-5.3 69.06-5.3ZM103.19-25.61L103.19-25.61Q106.76-25.61 109.06-24.01 111.37-22.41 112.5-19.62 113.64-16.82 113.64-13.21L113.64-13.21Q113.64-9.3 112.31-6.18 110.98-3.05 108.39-1.22 105.8 0.61 101.97 0.61L101.97 0.61Q99.99 0.61 98.71 0.16 97.43-0.29 96.66-0.92 95.89-1.54 95.45-2.05L95.45-2.05 95.35-2.05 95.35 8.35Q95.35 8.94 95.11 9.25L95.11 9.25Q94.08 10.6 92.11 12.16L92.11 12.16Q91.76 12.4 91.5 12.4L91.5 12.4Q91.2 12.4 90.89 12.16L90.89 12.16Q89.84 11.35 89.12 10.64 88.4 9.94 87.88 9.25L87.88 9.25Q87.64 8.94 87.64 8.35L87.64 8.35 87.64-21.75Q87.64-22.34 87.88-22.66L87.88-22.66Q88.4-23.34 89.12-24.05 89.84-24.76 90.89-25.56L90.89-25.56Q91.2-25.81 91.55-25.81L91.55-25.81Q91.86-25.81 92.2-25.56L92.2-25.56Q93.23-24.76 93.96-24.02 94.69-23.29 95.26-22.51L95.26-22.51 95.38-22.51Q95.79-23.02 96.65-23.75 97.5-24.49 99.08-25.05 100.65-25.61 103.19-25.61ZM100.19-5.62L100.19-5.62Q102.82-5.62 104.28-7.46 105.73-9.3 105.73-12.79L105.73-12.79Q105.73-19.38 100.31-19.38L100.31-19.38Q98.01-19.38 96.92-18.44 95.82-17.5 95.35-16.46L95.35-16.46 95.35-11.16Q95.35-8.79 96.57-7.2 97.8-5.62 100.19-5.62ZM145.13-25.61L145.13-25.61Q148.03-25.61 149.35-25.13 150.67-24.66 151.01-24.39L151.01-24.39Q151.55-24.05 151.84-23.51L151.84-23.51Q152.01-23.24 152.23-22.58 152.45-21.92 152.55-21.14L152.55-21.14Q152.67-20.53 152.58-20.28 152.48-20.02 151.97-19.65L151.97-19.65Q151.38-19.26 150.68-18.96 149.99-18.65 149.55-18.53L149.55-18.53Q149.18-18.43 148.99-18.48 148.79-18.53 148.45-18.77L148.45-18.77Q148.06-19.04 147.35-19.37 146.64-19.7 145.4-19.7L145.4-19.7Q143.81-19.7 142.38-18.92 140.95-18.14 140.06-16.58 139.17-15.01 139.17-12.67L139.17-12.67Q139.17-9.16 141.02-7.23 142.86-5.3 145.96-5.3L145.96-5.3Q147.55-5.3 148.6-5.63 149.65-5.96 150.26-6.3L150.26-6.3Q150.74-6.57 151-6.43 151.26-6.3 151.4-5.96L151.4-5.96 153.19-1.93Q153.45-1.29 152.89-1.03L152.89-1.03Q151.99-0.56 149.91 0.02 147.84 0.61 144.79 0.61L144.79 0.61Q138.66 0.61 135-2.65 131.34-5.91 131.34-12.4L131.34-12.4Q131.34-16.55 133.02-19.51 134.7-22.46 137.8-24.04 140.91-25.61 145.13-25.61ZM169.42 0.61L169.42 0.61Q165.29 0.61 162.24-0.72 159.19-2.05 157.5-4.86 155.82-7.67 155.82-12.11L155.82-12.11Q155.82-18.77 159.24-22.19 162.66-25.61 168.32-25.61L168.32-25.61Q172.01-25.61 174.56-24.29 177.11-22.97 178.44-20.65 179.77-18.33 179.77-15.36L179.77-15.36Q179.77-12.45 178.28-11.3 176.79-10.16 173.94-10.16L173.94-10.16 163.46-10.16Q163.66-7.64 165.3-6.32 166.95-5 169.78-5L169.78-5Q172.03-5 173.39-5.68 174.74-6.35 175.28-6.74L175.28-6.74Q175.74-7.08 176.33-7.06L176.33-7.06Q176.79-7.06 177.66-6.87 178.53-6.69 179.38-6.2L179.38-6.2Q179.99-5.88 179.99-5.32L179.99-5.32Q179.99-5 179.87-4.42L179.87-4.42Q179.79-4.08 179.62-3.43 179.45-2.78 179.18-2.22L179.18-2.22Q179.04-1.95 178.72-1.71L178.72-1.71Q178.23-1.37 177.15-0.81 176.06-0.24 174.18 0.18 172.3 0.61 169.42 0.61ZM163.41-15.16L163.41-15.16 171.37-15.16Q172.62-15.16 172.62-16.31L172.62-16.31Q172.62-18.04 171.53-19.23 170.44-20.41 168.27-20.41L168.27-20.41Q165.9-20.41 164.79-18.9 163.68-17.38 163.41-15.16ZM209.31-15.55L209.31-15.55 209.31-1.29Q209.31-0.56 209-0.28 208.7 0 207.97 0L207.97 0 202.94 0Q202.2 0 201.9-0.28 201.59-0.56 201.59-1.29L201.59-1.29 201.59-14.28Q201.59-16.94 200.47-18.16 199.35-19.38 197.42-19.38L197.42-19.38Q195.49-19.38 194.45-18.55 193.42-17.72 192.85-16.46L192.85-16.46 192.85-1.29Q192.85-0.56 192.55-0.28 192.24 0 191.51 0L191.51 0 186.48 0Q185.75 0 185.44-0.28 185.14-0.56 185.14-1.29L185.14-1.29 185.14-21.75Q185.14-22.34 185.38-22.66L185.38-22.66Q185.9-23.34 186.62-24.05 187.34-24.76 188.39-25.56L188.39-25.56Q188.7-25.81 189-25.81L189-25.81Q189.26-25.81 189.61-25.56L189.61-25.56Q190.63-24.76 191.36-24.02 192.1-23.29 192.66-22.51L192.66-22.51 192.78-22.51Q193.2-23.05 194.03-23.77 194.86-24.49 196.36-25.05 197.86-25.61 200.2-25.61L200.2-25.61Q202.5-25.61 204.57-24.68 206.65-23.75 207.98-21.56 209.31-19.36 209.31-15.55ZM225.79 0.61L225.79 0.61Q217.63 0.61 217.63-7.86L217.63-7.86 217.63-19.31 214.87-19.31Q214.14-19.31 213.86-19.62 213.58-19.92 213.58-20.65L213.58-20.65 213.58-23.66Q213.58-24.39 213.86-24.69 214.14-25 214.87-25L214.87-25 217.63-25 217.63-28.93Q217.63-29.52 217.88-29.83L217.88-29.83Q218.9-31.18 220.88-32.74L220.88-32.74Q221.22-32.98 221.49-32.98L221.49-32.98Q221.78-32.98 222.07-32.74L222.07-32.74Q223.12-31.93 223.84-31.23 224.56-30.52 225.08-29.83L225.08-29.83Q225.32-29.52 225.32-28.93L225.32-28.93 225.32-25 229.64-25Q230.38-25 230.66-24.69 230.94-24.39 230.94-23.66L230.94-23.66 230.94-20.65Q230.94-19.92 230.66-19.62 230.38-19.31 229.64-19.31L229.64-19.31 225.32-19.31 225.32-9.2Q225.32-5.3 228.15-5.3L228.15-5.3Q228.59-5.3 228.96-5.38 229.33-5.47 229.59-5.57L229.59-5.57Q230.11-5.76 230.31-5.71 230.52-5.66 230.69-5.18L230.69-5.18 232.11-1.39Q232.33-0.78 231.82-0.51L231.82-0.51Q231.45-0.34 230.05 0.13 228.64 0.61 225.79 0.61ZM248.44 0.61L248.44 0.61Q244.31 0.61 241.26-0.72 238.21-2.05 236.53-4.86 234.84-7.67 234.84-12.11L234.84-12.11Q234.84-18.77 238.26-22.19 241.68-25.61 247.34-25.61L247.34-25.61Q251.03-25.61 253.58-24.29 256.13-22.97 257.46-20.65 258.79-18.33 258.79-15.36L258.79-15.36Q258.79-12.45 257.3-11.3 255.81-10.16 252.96-10.16L252.96-10.16 242.48-10.16Q242.68-7.64 244.33-6.32 245.97-5 248.81-5L248.81-5Q251.05-5 252.41-5.68 253.76-6.35 254.3-6.74L254.3-6.74Q254.76-7.08 255.35-7.06L255.35-7.06Q255.81-7.06 256.68-6.87 257.55-6.69 258.4-6.2L258.4-6.2Q259.01-5.88 259.01-5.32L259.01-5.32Q259.01-5 258.89-4.42L258.89-4.42Q258.82-4.08 258.64-3.43 258.47-2.78 258.21-2.22L258.21-2.22Q258.06-1.95 257.74-1.71L257.74-1.71Q257.25-1.37 256.17-0.81 255.08-0.24 253.2 0.18 251.32 0.61 248.44 0.61ZM242.43-15.16L242.43-15.16 250.39-15.16Q251.64-15.16 251.64-16.31L251.64-16.31Q251.64-18.04 250.55-19.23 249.46-20.41 247.29-20.41L247.29-20.41Q244.92-20.41 243.81-18.9 242.7-17.38 242.43-15.16ZM271.87-22.17L271.87-20.36 271.97-20.36Q273.8-25.44 278.56-25.44L278.56-25.44Q279.17-25.44 279.56-25.38 279.96-25.32 280.1-25.27L280.1-25.27Q280.47-25.15 280.47-24.71L280.47-24.71 280.47-18.82Q280.47-18.07 279.59-18.41L279.59-18.41Q279.3-18.53 278.75-18.66 278.2-18.8 277.22-18.8L277.22-18.8Q274.71-18.8 273.29-16.96 271.87-15.11 271.87-11.94L271.87-11.94 271.87-1.29Q271.87-0.56 271.57-0.28 271.26 0 270.53 0L270.53 0 265.5 0Q264.77 0 264.46-0.28 264.16-0.56 264.16-1.29L264.16-1.29 264.16-21.75Q264.16-22.34 264.4-22.66L264.4-22.66Q264.92-23.34 265.64-24.05 266.36-24.76 267.41-25.56L267.41-25.56Q267.6-25.71 267.8-25.76 267.99-25.81 268.14-25.81L268.14-25.81Q268.48-25.81 268.82-25.56L268.82-25.56Q270.85-23.97 271.65-22.85L271.65-22.85Q271.87-22.56 271.87-22.17L271.87-22.17Z" opacity="1" transform="matrix(1,0,0,1,0,0)" fill="#616da7" class="wordmark-text-0" data-fill-palette-color="primary" id="text-0"></path></svg></g></svg></g></svg></g></svg></g><g></g></svg></g><defs></defs></svg><rect width="395.52" height="71.93709407688355" fill="none" stroke="none" visibility="hidden"></rect></g></svg></g></svg>